<mxfile host="Electron" modified="2024-03-17T07:18:19.348Z" agent="Mozilla/5.0 (Macintosh; Intel Mac OS X 10_15_7) AppleWebKit/537.36 (KHTML, like Gecko) draw.io/24.0.4 Chrome/120.0.6099.109 Electron/28.1.0 Safari/537.36" etag="weeSPqp5YLXA5SPZMF6w" version="24.0.4" type="device">
  <diagram name="Page-1" id="b2egkOWzIZG-_e6omw6h">
    <mxGraphModel dx="700" dy="622" grid="1" gridSize="10" guides="1" tooltips="1" connect="1" arrows="1" fold="1" page="1" pageScale="1" pageWidth="827" pageHeight="1169" math="0" shadow="0">
      <root>
        <mxCell id="0" />
        <mxCell id="1" parent="0" />
        <mxCell id="nec2fJGvU75ngoC6EV_g-2" value="" style="rounded=0;whiteSpace=wrap;html=1;" parent="1" vertex="1">
          <mxGeometry x="240" y="90" width="80" height="360" as="geometry" />
        </mxCell>
        <mxCell id="nec2fJGvU75ngoC6EV_g-1" value="" style="rounded=0;whiteSpace=wrap;html=1;" parent="1" vertex="1">
          <mxGeometry x="30" y="160" width="190" height="280" as="geometry" />
        </mxCell>
        <mxCell id="nec2fJGvU75ngoC6EV_g-3" value="&lt;div&gt;planning chore&lt;/div&gt;" style="rounded=0;whiteSpace=wrap;html=1;fillColor=#d5e8d4;strokeColor=#82b366;" parent="1" vertex="1">
          <mxGeometry x="240" y="80" width="80" height="30" as="geometry" />
        </mxCell>
        <mxCell id="nec2fJGvU75ngoC6EV_g-4" value="user story" style="rounded=0;whiteSpace=wrap;html=1;fillColor=#f8cecc;strokeColor=#b85450;" parent="1" vertex="1">
          <mxGeometry x="240" y="110" width="80" height="30" as="geometry" />
        </mxCell>
        <mxCell id="nec2fJGvU75ngoC6EV_g-5" value="user story" style="rounded=0;whiteSpace=wrap;html=1;fillColor=#f8cecc;strokeColor=#b85450;" parent="1" vertex="1">
          <mxGeometry x="40" y="170" width="60" height="30" as="geometry" />
        </mxCell>
        <mxCell id="nec2fJGvU75ngoC6EV_g-6" value="user story" style="rounded=0;whiteSpace=wrap;html=1;fillColor=#f8cecc;strokeColor=#b85450;" parent="1" vertex="1">
          <mxGeometry x="110" y="180" width="60" height="30" as="geometry" />
        </mxCell>
        <mxCell id="nec2fJGvU75ngoC6EV_g-7" value="user story" style="rounded=0;whiteSpace=wrap;html=1;fillColor=#f8cecc;strokeColor=#b85450;" parent="1" vertex="1">
          <mxGeometry x="40" y="230" width="60" height="30" as="geometry" />
        </mxCell>
        <mxCell id="nec2fJGvU75ngoC6EV_g-8" value="user story" style="rounded=0;whiteSpace=wrap;html=1;fillColor=#f8cecc;strokeColor=#b85450;" parent="1" vertex="1">
          <mxGeometry x="140" y="260" width="60" height="30" as="geometry" />
        </mxCell>
        <mxCell id="nec2fJGvU75ngoC6EV_g-9" value="user story" style="rounded=0;whiteSpace=wrap;html=1;fillColor=#f8cecc;strokeColor=#b85450;" parent="1" vertex="1">
          <mxGeometry x="70" y="285" width="60" height="30" as="geometry" />
        </mxCell>
        <mxCell id="nec2fJGvU75ngoC6EV_g-15" value="" style="endArrow=none;dashed=1;html=1;rounded=0;" parent="1" edge="1">
          <mxGeometry width="50" height="50" relative="1" as="geometry">
            <mxPoint x="279.5" y="370" as="sourcePoint" />
            <mxPoint x="279.5" y="310" as="targetPoint" />
          </mxGeometry>
        </mxCell>
        <mxCell id="nec2fJGvU75ngoC6EV_g-18" value="" style="edgeStyle=orthogonalEdgeStyle;rounded=0;orthogonalLoop=1;jettySize=auto;html=1;entryX=1;entryY=0.5;entryDx=0;entryDy=0;exitX=1;exitY=0.5;exitDx=0;exitDy=0;" parent="1" source="nec2fJGvU75ngoC6EV_g-16" target="nec2fJGvU75ngoC6EV_g-4" edge="1">
          <mxGeometry relative="1" as="geometry" />
        </mxCell>
        <mxCell id="nec2fJGvU75ngoC6EV_g-16" value="dependent&lt;div&gt;chore&lt;/div&gt;" style="rounded=0;whiteSpace=wrap;html=1;fillColor=#e1d5e7;strokeColor=#9673a6;" parent="1" vertex="1">
          <mxGeometry x="240" y="150" width="80" height="30" as="geometry" />
        </mxCell>
        <mxCell id="nec2fJGvU75ngoC6EV_g-17" value="user story" style="rounded=0;whiteSpace=wrap;html=1;fillColor=#f8cecc;strokeColor=#b85450;" parent="1" vertex="1">
          <mxGeometry x="150" y="215" width="60" height="30" as="geometry" />
        </mxCell>
        <mxCell id="nec2fJGvU75ngoC6EV_g-19" value="&lt;div&gt;planning chore&lt;/div&gt;" style="rounded=0;whiteSpace=wrap;html=1;fillColor=#d5e8d4;strokeColor=#82b366;" parent="1" vertex="1">
          <mxGeometry x="240" y="380" width="80" height="30" as="geometry" />
        </mxCell>
        <mxCell id="nec2fJGvU75ngoC6EV_g-20" value="Ice Box" style="rounded=0;whiteSpace=wrap;html=1;fillColor=none;strokeColor=none;" parent="1" vertex="1">
          <mxGeometry x="60" y="410" width="120" height="30" as="geometry" />
        </mxCell>
        <mxCell id="nec2fJGvU75ngoC6EV_g-21" value="Backlog" style="rounded=0;whiteSpace=wrap;html=1;fillColor=none;strokeColor=none;" parent="1" vertex="1">
          <mxGeometry x="240" y="420" width="80" height="30" as="geometry" />
        </mxCell>
        <mxCell id="nec2fJGvU75ngoC6EV_g-23" style="edgeStyle=orthogonalEdgeStyle;rounded=0;orthogonalLoop=1;jettySize=auto;html=1;entryX=1;entryY=0.5;entryDx=0;entryDy=0;" parent="1" source="nec2fJGvU75ngoC6EV_g-22" target="nec2fJGvU75ngoC6EV_g-4" edge="1">
          <mxGeometry relative="1" as="geometry">
            <Array as="points">
              <mxPoint x="340" y="195" />
              <mxPoint x="340" y="125" />
            </Array>
          </mxGeometry>
        </mxCell>
        <mxCell id="nec2fJGvU75ngoC6EV_g-22" value="dependent&lt;div&gt;chore&lt;/div&gt;" style="rounded=0;whiteSpace=wrap;html=1;fillColor=#e1d5e7;strokeColor=#9673a6;" parent="1" vertex="1">
          <mxGeometry x="240" y="180" width="80" height="30" as="geometry" />
        </mxCell>
        <mxCell id="nec2fJGvU75ngoC6EV_g-24" value="" style="rounded=0;whiteSpace=wrap;html=1;" parent="1" vertex="1">
          <mxGeometry x="400" y="200" width="80" height="190" as="geometry" />
        </mxCell>
        <mxCell id="nec2fJGvU75ngoC6EV_g-25" value="user story" style="rounded=0;whiteSpace=wrap;html=1;fillColor=#f8cecc;strokeColor=#b85450;" parent="1" vertex="1">
          <mxGeometry x="240" y="220" width="80" height="30" as="geometry" />
        </mxCell>
        <mxCell id="nec2fJGvU75ngoC6EV_g-26" value="user story" style="rounded=0;whiteSpace=wrap;html=1;fillColor=#f8cecc;strokeColor=#b85450;" parent="1" vertex="1">
          <mxGeometry x="240" y="255" width="80" height="30" as="geometry" />
        </mxCell>
        <mxCell id="nec2fJGvU75ngoC6EV_g-27" value="Epic" style="rounded=0;whiteSpace=wrap;html=1;fillColor=none;strokeColor=none;" parent="1" vertex="1">
          <mxGeometry x="400" y="360" width="80" height="30" as="geometry" />
        </mxCell>
        <mxCell id="nec2fJGvU75ngoC6EV_g-31" style="edgeStyle=orthogonalEdgeStyle;rounded=0;orthogonalLoop=1;jettySize=auto;html=1;entryX=1;entryY=0.5;entryDx=0;entryDy=0;exitX=1;exitY=0.5;exitDx=0;exitDy=0;" parent="1" source="nec2fJGvU75ngoC6EV_g-28" target="nec2fJGvU75ngoC6EV_g-29" edge="1">
          <mxGeometry relative="1" as="geometry" />
        </mxCell>
        <mxCell id="nec2fJGvU75ngoC6EV_g-28" value="dependent&lt;div&gt;chore&lt;/div&gt;" style="rounded=0;whiteSpace=wrap;html=1;fillColor=#e1d5e7;strokeColor=#9673a6;" parent="1" vertex="1">
          <mxGeometry x="400" y="285" width="80" height="30" as="geometry" />
        </mxCell>
        <mxCell id="nec2fJGvU75ngoC6EV_g-29" value="user story" style="rounded=0;whiteSpace=wrap;html=1;fillColor=#f8cecc;strokeColor=#b85450;" parent="1" vertex="1">
          <mxGeometry x="400" y="240" width="80" height="30" as="geometry" />
        </mxCell>
        <mxCell id="nec2fJGvU75ngoC6EV_g-32" value="user story" style="rounded=0;whiteSpace=wrap;html=1;fillColor=#f8cecc;strokeColor=#b85450;" parent="1" vertex="1">
          <mxGeometry x="400" y="330" width="80" height="30" as="geometry" />
        </mxCell>
        <mxCell id="K5XD7uDT-Oey7RuOoWA7-1" value="&lt;div&gt;spike chore&lt;/div&gt;" style="rounded=0;whiteSpace=wrap;html=1;fillColor=#d5e8d4;strokeColor=#82b366;" parent="1" vertex="1">
          <mxGeometry x="400" y="200" width="80" height="30" as="geometry" />
        </mxCell>
        <mxCell id="IHYZLgpa_DqJY9c70MR3-1" value="" style="endArrow=none;dashed=1;html=1;rounded=0;exitX=1;exitY=0;exitDx=0;exitDy=0;entryX=0;entryY=0;entryDx=0;entryDy=0;" edge="1" parent="1" source="nec2fJGvU75ngoC6EV_g-26" target="K5XD7uDT-Oey7RuOoWA7-1">
          <mxGeometry width="50" height="50" relative="1" as="geometry">
            <mxPoint x="340" y="350" as="sourcePoint" />
            <mxPoint x="390" y="300" as="targetPoint" />
          </mxGeometry>
        </mxCell>
        <mxCell id="IHYZLgpa_DqJY9c70MR3-3" value="" style="endArrow=none;dashed=1;html=1;rounded=0;exitX=1;exitY=0.533;exitDx=0;exitDy=0;entryX=0;entryY=1;entryDx=0;entryDy=0;exitPerimeter=0;" edge="1" parent="1" source="nec2fJGvU75ngoC6EV_g-2" target="nec2fJGvU75ngoC6EV_g-27">
          <mxGeometry width="50" height="50" relative="1" as="geometry">
            <mxPoint x="330" y="265" as="sourcePoint" />
            <mxPoint x="410" y="210" as="targetPoint" />
          </mxGeometry>
        </mxCell>
      </root>
    </mxGraphModel>
  </diagram>
</mxfile>
